<?xml version="1.0" standalone="no"?>
<!DOCTYPE svg PUBLIC "-//W3C//DTD SVG 20010904//EN"
 "http://www.w3.org/TR/2001/REC-SVG-20010904/DTD/svg10.dtd">
<svg version="1.0" xmlns="http://www.w3.org/2000/svg"
 width="825.000000pt" height="138.000000pt" viewBox="0 0 825.000000 138.000000"
 preserveAspectRatio="xMidYMid meet">
<metadata>
Created by potrace 1.16, written by Peter Selinger 2001-2019
</metadata>
<g transform="translate(0.000000,138.000000) scale(0.100000,-0.100000)"
fill="#000000" stroke="none">
<path d="M1803 1371 c-135 -35 -214 -159 -229 -358 -16 -218 49 -391 170 -456
34 -18 57 -22 136 -22 87 0 100 3 149 30 87 48 150 155 151 258 l0 47 -89 0
-88 0 -12 -61 c-16 -79 -44 -109 -101 -109 -90 0 -135 97 -128 279 3 84 8 115
26 152 28 58 73 85 125 75 46 -9 64 -35 79 -115 l12 -61 89 0 90 0 -5 68 c-9
116 -71 212 -165 254 -49 21 -161 32 -210 19z"/>
<path d="M6461 1363 c-52 -19 -118 -82 -146 -138 -12 -25 -21 -68 -23 -117 -5
-101 16 -167 72 -222 59 -59 108 -80 188 -80 38 -1 68 -3 68 -4 0 -2 -38 -60
-85 -128 -47 -69 -85 -127 -85 -129 0 -3 24 -5 53 -5 l52 0 132 198 c73 108
140 217 149 242 19 53 22 148 5 207 -16 57 -67 121 -124 157 -41 25 -60 30
-130 33 -57 2 -95 -2 -126 -14z m213 -101 c100 -69 116 -224 33 -314 -90 -97
-242 -75 -301 44 -95 190 101 388 268 270z"/>
<path d="M5990 1325 l0 -45 70 0 70 0 0 -370 0 -370 50 0 50 0 0 415 0 415
-120 0 -120 0 0 -45z"/>
<path d="M6850 1325 l0 -45 70 0 70 0 0 -370 0 -370 50 0 50 0 0 415 0 415
-120 0 -120 0 0 -45z"/>
<path d="M7160 1325 l0 -45 191 0 c177 0 190 -1 185 -17 -3 -10 -77 -175 -165
-368 l-159 -350 45 -3 c25 -2 49 0 54 5 4 4 82 174 173 377 122 271 166 380
166 408 l0 38 -245 0 -245 0 0 -45z"/>
<path d="M8170 853 l0 -518 -24 -52 c-35 -74 -63 -109 -120 -147 -104 -71 25
-66 -1868 -66 l-1708 0 0 -35 0 -35 1710 0 c1212 0 1724 3 1762 11 119 25 234
116 284 224 39 85 44 156 44 658 l0 477 -40 0 -40 0 0 -517z"/>
<path d="M0 950 l0 -410 200 0 200 0 0 85 0 85 -110 0 -110 0 0 325 0 325 -90
0 -90 0 0 -410z"/>
<path d="M460 950 l0 -410 210 0 210 0 0 85 0 85 -120 0 -120 0 0 90 0 90 120
0 120 0 0 85 0 85 -120 0 -120 0 0 70 0 70 120 0 120 0 0 80 0 80 -210 0 -210
0 0 -410z"/>
<path d="M952 1028 c3 -321 4 -334 25 -374 49 -91 137 -129 282 -122 94 5 146
25 193 75 54 57 58 86 58 434 l0 319 -90 0 -90 0 0 -295 c0 -361 -1 -365 -104
-365 -33 0 -48 6 -67 26 l-24 26 -3 304 -3 304 -90 0 -90 0 3 -332z"/>
<path d="M2260 950 l0 -410 90 0 90 0 0 175 0 175 95 0 95 0 0 -175 0 -175 90
0 90 0 0 410 0 410 -90 0 -90 0 0 -150 0 -150 -95 0 -95 0 0 150 0 150 -90 0
-90 0 0 -410z"/>
<path d="M2870 1280 l0 -80 70 0 70 0 0 -330 0 -330 90 0 90 0 0 330 0 330 70
0 70 0 0 80 0 80 -230 0 -230 0 0 -80z"/>
<path d="M3380 1280 l0 -80 70 0 70 0 0 -330 0 -330 90 0 90 0 0 330 0 330 70
0 70 0 0 80 0 80 -230 0 -230 0 0 -80z"/>
<path d="M3902 1022 l3 -339 30 -48 c43 -70 101 -98 215 -103 150 -7 240 33
284 128 20 42 21 65 24 373 l4 327 -96 0 -96 0 0 -304 c0 -292 -1 -304 -21
-330 -17 -22 -28 -26 -69 -26 -32 0 -55 6 -71 19 l-24 19 -3 311 -3 311 -90 0
-90 0 3 -338z"/>
<path d="M4530 951 l0 -411 90 0 89 0 3 151 3 151 85 -151 85 -150 103 -1 c56
0 102 3 102 6 0 4 -43 76 -96 160 -52 85 -92 159 -89 164 3 6 13 10 21 10 25
0 92 70 110 115 12 31 15 66 13 123 -3 66 -9 86 -34 127 -17 27 -50 63 -74 80
l-43 30 -184 3 -184 3 0 -410z m279 238 c51 -18 75 -83 49 -132 -19 -36 -40
-46 -95 -47 l-53 0 0 95 0 95 34 0 c18 0 47 -5 65 -11z"/>
<path d="M5150 950 l0 -410 80 0 80 0 1 293 1 292 38 -155 c21 -85 52 -217 70
-292 l32 -138 67 0 66 0 70 301 70 300 3 -300 2 -301 80 0 80 0 0 410 0 410
-130 0 c-71 0 -130 -2 -130 -6 0 -14 -101 -471 -108 -487 -5 -12 -27 73 -62
237 l-55 256 -127 0 -128 0 0 -410z"/>
<path d="M0 161 l0 -161 88 0 c102 0 145 17 174 71 25 46 24 134 -2 176 -32
53 -61 65 -165 71 l-95 5 0 -162z m174 68 c22 -17 26 -28 26 -70 0 -63 -23
-89 -80 -89 l-40 0 0 90 0 90 34 0 c19 0 45 -9 60 -21z"/>
<path d="M820 160 l0 -160 35 0 c34 0 35 1 35 39 0 57 15 58 45 6 26 -43 29
-45 72 -45 32 0 42 3 37 13 -4 6 -25 38 -47 71 l-39 58 43 44 43 44 -44 0
c-36 0 -50 -6 -77 -32 l-33 -32 0 77 0 77 -35 0 -35 0 0 -160z"/>
<path d="M2050 290 c0 -28 3 -30 35 -30 32 0 35 2 35 30 0 28 -3 30 -35 30
-32 0 -35 -2 -35 -30z"/>
<path d="M2590 271 l0 -48 -38 10 c-51 13 -91 -6 -116 -56 -23 -48 -15 -114
19 -151 22 -23 29 -25 114 -25 l91 1 0 159 0 159 -35 0 -35 0 0 -49z m-11
-122 c26 -46 -10 -109 -53 -93 -18 7 -32 48 -27 79 8 51 55 59 80 14z"/>
<path d="M3230 160 l0 -160 40 0 40 0 0 65 0 65 55 0 55 0 0 -65 0 -65 40 0
40 0 0 160 0 160 -40 0 -40 0 0 -60 0 -60 -55 0 -55 0 0 60 0 60 -40 0 -40 0
0 -160z"/>
<path d="M4200 271 l0 -49 -34 10 c-73 23 -126 -28 -126 -121 0 -39 6 -56 26
-80 25 -30 27 -30 115 -30 l89 0 0 160 0 159 -35 0 -35 0 0 -49z m-10 -110
c15 -29 12 -72 -7 -93 -20 -22 -31 -23 -55 -1 -36 32 -17 113 27 113 14 0 29
-8 35 -19z"/>
<path d="M4400 295 c0 -22 -4 -25 -27 -23 -34 4 -47 -30 -14 -39 16 -4 19 -9
11 -23 -14 -26 -12 -37 6 -44 10 -4 22 1 30 11 12 17 13 17 26 0 9 -11 20 -16
31 -11 19 7 23 29 7 39 -16 10 -12 22 11 28 33 9 20 43 -14 39 -23 -2 -27 1
-27 23 0 18 -5 25 -20 25 -15 0 -20 -7 -20 -25z"/>
<path d="M2180 265 c0 -28 -4 -35 -20 -35 -15 0 -20 -7 -20 -25 0 -18 5 -25
20 -25 18 0 20 -7 20 -73 0 -88 14 -107 78 -107 40 0 42 1 42 30 0 25 -4 30
-25 30 -24 0 -25 3 -25 60 0 57 1 60 25 60 20 0 25 5 25 25 0 20 -5 25 -25 25
-22 0 -25 4 -25 35 0 33 -2 35 -35 35 -33 0 -35 -2 -35 -35z"/>
<path d="M363 224 c-56 -28 -78 -105 -48 -169 19 -39 51 -55 111 -55 37 0 51
6 75 29 16 16 29 34 29 40 0 17 -66 13 -80 -4 -18 -21 -49 -15 -68 12 l-14 23
82 0 83 0 -6 42 c-11 78 -91 119 -164 82z m87 -64 c10 -19 8 -20 -35 -20 -50
0 -52 2 -29 24 21 22 51 20 64 -4z"/>
<path d="M667 233 c-4 -3 -29 -5 -57 -4 l-50 1 0 -115 0 -115 35 0 35 0 0 71
c0 79 11 109 41 109 26 0 39 -37 39 -116 l0 -64 35 0 35 0 0 79 c0 94 -14 139
-47 152 -28 11 -57 12 -66 2z"/>
<path d="M1103 225 c-49 -21 -66 -55 -61 -122 7 -76 36 -103 114 -103 45 0 59
4 79 25 14 13 25 31 25 40 0 20 -43 20 -76 -1 -20 -14 -30 -15 -49 -6 -14 7
-25 18 -25 27 0 12 15 15 81 15 l81 0 -7 36 c-9 51 -31 81 -67 93 -40 14 -56
13 -95 -4z m75 -57 c21 -21 13 -28 -28 -28 -22 0 -40 4 -40 8 0 14 23 32 40
32 9 0 21 -5 28 -12z"/>
<path d="M1391 231 c-7 -5 -31 -6 -52 -4 l-39 6 0 -117 0 -116 35 0 34 0 3 81
c2 63 7 84 20 92 33 21 48 -8 48 -94 l0 -79 35 0 35 0 0 95 c0 88 -2 98 -25
120 -25 25 -68 33 -94 16z"/>
<path d="M1752 224 c-12 -8 -22 -10 -22 -5 0 6 -13 11 -30 11 l-30 0 0 -115 0
-115 35 0 34 0 3 81 c2 65 7 84 20 93 30 18 43 -8 47 -94 l3 -80 34 0 34 0 0
79 c0 82 13 110 45 97 12 -4 15 -24 15 -91 l0 -85 35 0 35 0 0 98 c0 53 -4
102 -8 108 -21 32 -85 44 -117 20 -15 -11 -22 -11 -44 0 -34 18 -62 18 -89 -2z"/>
<path d="M2754 231 c-41 -18 -64 -60 -64 -118 0 -47 4 -59 29 -84 25 -25 37
-29 84 -29 45 0 59 4 81 26 36 37 34 54 -9 54 -19 0 -35 -4 -35 -10 0 -5 -11
-12 -25 -16 -27 -7 -55 10 -55 32 0 11 18 14 75 14 l75 0 0 35 c0 70 -89 125
-156 96z m74 -63 c21 -21 13 -28 -28 -28 -22 0 -40 4 -40 8 0 14 23 32 40 32
9 0 21 -5 28 -12z"/>
<path d="M3038 226 c-16 -8 -28 -11 -28 -5 0 5 -16 9 -35 9 l-35 0 0 -115 0
-115 35 0 35 0 0 58 c0 72 17 106 53 110 24 3 27 8 27 38 0 38 -10 42 -52 20z"/>
<path d="M3603 233 c-25 -5 -63 -48 -63 -69 0 -9 12 -14 35 -14 19 0 35 4 35
10 0 14 37 31 54 24 38 -14 10 -44 -40 -44 -64 0 -108 -55 -83 -103 18 -34 27
-36 124 -36 l91 1 -4 96 c-3 76 -8 101 -22 116 -18 18 -84 29 -127 19z m77
-146 c0 -20 -22 -37 -47 -37 -28 0 -32 36 -5 43 34 9 52 7 52 -6z"/>
<path d="M3898 234 c-5 -4 -30 -6 -58 -5 l-50 1 0 -115 0 -115 35 0 35 0 0 74
c0 54 4 79 16 90 40 41 64 6 64 -93 l0 -71 36 0 36 0 -4 100 c-2 73 -7 103
-19 115 -17 18 -80 31 -91 19z"/>
<path d="M2050 115 l0 -115 35 0 35 0 0 115 0 115 -35 0 -35 0 0 -115z"/>
</g>
</svg>
